<?xml version="1.0" encoding="utf-8"?>
<svg xmlns="http://www.w3.org/2000/svg" version="1.1" width="2000" height="2000">

<line x1="100" y1="100" x2="400" y2="100" stroke="blue" />
<text x="250" y="100" fill="black" >5</text>
<line x1="100" y1="100" x2="100" y2="400" stroke="blue" />
<text x="100" y="250" fill="black" >2</text>
<line x1="100" y1="100" x2="200" y2="200" stroke="blue" />
<text x="150" y="150" fill="black" >9</text>
<line x1="200" y1="200" x2="300" y2="200" stroke="blue" />
<text x="250" y="200" fill="black" >6</text>
<line x1="400" y1="100" x2="300" y2="200" stroke="blue" />
<text x="350" y="150" fill="black" >7</text>
<line x1="400" y1="100" x2="400" y2="400" stroke="blue" />
<text x="400" y="250" fill="black" >6</text>
<line x1="200" y1="200" x2="200" y2="300" stroke="blue" />
<text x="200" y="250" fill="black" >9</text>
<line x1="300" y1="200" x2="300" y2="300" stroke="blue" />
<text x="300" y="250" fill="black" >1</text>
<line x1="200" y1="300" x2="100" y2="400" stroke="blue" />
<text x="150" y="350" fill="black" >2</text>
<line x1="200" y1="300" x2="300" y2="300" stroke="blue" />
<text x="250" y="300" fill="black" >5</text>
<line x1="300" y1="300" x2="400" y2="400" stroke="blue" />
<text x="350" y="350" fill="black" >3</text>
<line x1="100" y1="400" x2="400" y2="400" stroke="blue" />
<text x="250" y="400" fill="black" >4</text>
<line x1="300" y1="200" x2="300" y2="300" stroke="pink" />
<line x1="100" y1="100" x2="100" y2="400" stroke="pink" />
<line x1="200" y1="300" x2="100" y2="400" stroke="pink" />
<line x1="300" y1="300" x2="400" y2="400" stroke="pink" />
<line x1="100" y1="400" x2="400" y2="400" stroke="pink" />
<line x1="100" y1="100" x2="400" y2="100" stroke="pink" />
<line x1="200" y1="200" x2="300" y2="200" stroke="pink" />
<circle cx="100" cy="100" r="20" fill="red" stroke="red" stroke-width="10" />
<text x="97" y="103" fill="black" >0</text>
<circle cx="400" cy="100" r="20" fill="red" stroke="red" stroke-width="10" />
<text x="397" y="103" fill="black" >1</text>
<circle cx="200" cy="200" r="20" fill="red" stroke="red" stroke-width="10" />
<text x="197" y="203" fill="black" >2</text>
<circle cx="300" cy="200" r="20" fill="red" stroke="red" stroke-width="10" />
<text x="297" y="203" fill="black" >3</text>
<circle cx="200" cy="300" r="20" fill="red" stroke="red" stroke-width="10" />
<text x="197" y="303" fill="black" >4</text>
<circle cx="300" cy="300" r="20" fill="red" stroke="red" stroke-width="10" />
<text x="297" y="303" fill="black" >5</text>
<circle cx="100" cy="400" r="20" fill="red" stroke="red" stroke-width="10" />
<text x="97" y="403" fill="black" >6</text>
<circle cx="400" cy="400" r="20" fill="red" stroke="red" stroke-width="10" />
<text x="397" y="403" fill="black" >7</text>
<line x1="500" y1="100" x2="800" y2="100" stroke="blue" />
<text x="650" y="100" fill="black" >5</text>
<line x1="500" y1="100" x2="500" y2="400" stroke="blue" />
<text x="500" y="250" fill="black" >3</text>
<line x1="500" y1="100" x2="600" y2="200" stroke="blue" />
<text x="550" y="150" fill="black" >4</text>
<line x1="600" y1="200" x2="700" y2="200" stroke="blue" />
<text x="650" y="200" fill="black" >4</text>
<line x1="800" y1="100" x2="700" y2="200" stroke="blue" />
<text x="750" y="150" fill="black" >2</text>
<line x1="800" y1="100" x2="800" y2="400" stroke="blue" />
<text x="800" y="250" fill="black" >3</text>
<line x1="600" y1="200" x2="600" y2="300" stroke="blue" />
<text x="600" y="250" fill="black" >7</text>
<line x1="700" y1="200" x2="700" y2="300" stroke="blue" />
<text x="700" y="250" fill="black" >2</text>
<line x1="600" y1="300" x2="500" y2="400" stroke="blue" />
<text x="550" y="350" fill="black" >7</text>
<line x1="600" y1="300" x2="700" y2="300" stroke="blue" />
<text x="650" y="300" fill="black" >9</text>
<line x1="700" y1="300" x2="800" y2="400" stroke="blue" />
<text x="750" y="350" fill="black" >4</text>
<line x1="500" y1="400" x2="800" y2="400" stroke="blue" />
<text x="650" y="400" fill="black" >4</text>
<line x1="800" y1="100" x2="700" y2="200" stroke="pink" />
<line x1="700" y1="200" x2="700" y2="300" stroke="pink" />
<line x1="500" y1="100" x2="500" y2="400" stroke="pink" />
<line x1="800" y1="100" x2="800" y2="400" stroke="pink" />
<line x1="500" y1="100" x2="600" y2="200" stroke="pink" />
<line x1="600" y1="200" x2="700" y2="200" stroke="pink" />
<line x1="600" y1="200" x2="600" y2="300" stroke="pink" />
<circle cx="500" cy="100" r="20" fill="red" stroke="red" stroke-width="10" />
<text x="497" y="103" fill="black" >0</text>
<circle cx="800" cy="100" r="20" fill="red" stroke="red" stroke-width="10" />
<text x="797" y="103" fill="black" >1</text>
<circle cx="600" cy="200" r="20" fill="red" stroke="red" stroke-width="10" />
<text x="597" y="203" fill="black" >2</text>
<circle cx="700" cy="200" r="20" fill="red" stroke="red" stroke-width="10" />
<text x="697" y="203" fill="black" >3</text>
<circle cx="600" cy="300" r="20" fill="red" stroke="red" stroke-width="10" />
<text x="597" y="303" fill="black" >4</text>
<circle cx="700" cy="300" r="20" fill="red" stroke="red" stroke-width="10" />
<text x="697" y="303" fill="black" >5</text>
<circle cx="500" cy="400" r="20" fill="red" stroke="red" stroke-width="10" />
<text x="497" y="403" fill="black" >6</text>
<circle cx="800" cy="400" r="20" fill="red" stroke="red" stroke-width="10" />
<text x="797" y="403" fill="black" >7</text>
<line x1="50" y1="1000" x2="50" y2="500" stroke="black" />
<line x1="50" y1="1000" x2="500" y2="1000" stroke="black" />
<text x="50" y="490" fill="black" >Cout 2</text>
<text x="530" y="1000" fill="black" >Cout 1</text>


</svg>
